<svg id="Layer_1" data-name="Layer 1" xmlns="http://www.w3.org/2000/svg" viewBox="0 0 1658 993"><defs><style>.cls-1{fill:#fff;}.cls-2{font-size:279.97px;}.cls-2,.cls-5{font-family:ShonarBangla-Bold, Shonar Bangla;font-weight:700;}.cls-3{letter-spacing:-0.07em;}.cls-4{letter-spacing:0em;}.cls-5{font-size:62.17px;}.cls-6{fill:#c32932;}</style></defs><rect class="cls-1" width="1658" height="993"/><text class="cls-2" transform="translate(175.35 782.49)">SECURI<tspan class="cls-3" x="875.31" y="0">T</tspan><tspan class="cls-4" x="1011.19" y="0">AS</tspan></text><text class="cls-5" transform="translate(701.81 871.25)">Bangladesh</text><path class="cls-6" d="M1004.41,263.49c0-10.13,0-20.25,0-30.37,0-12.39-7-20.35-19.35-21.52-55.65-5.26-102.41-28.49-140.73-69.11-9.66-10.25-21.17-10.11-30.86.22-36.27,38.63-80.75,61.1-133.11,68.35-24.36,3.37-27.42,6.62-26.88,31.35.57,26.22.23,52.65,3.55,78.57,6.58,51.29,28.92,96.36,60,137.26,27.6,36.38,61.13,66.36,99.23,91.35,8,5.22,15.95,6.17,24.11.84,61.29-40,110-91.28,140.16-158.81C995.69,357.47,1006.1,320.81,1004.41,263.49Z"/><path class="cls-6" d="M1457.41,263.49c0-10.13,0-20.25,0-30.37-.05-12.39-7-20.35-19.35-21.52-55.65-5.26-102.41-28.49-140.73-69.11-9.66-10.25-21.17-10.11-30.86.22-36.27,38.63-80.75,61.1-133.11,68.35-24.36,3.37-27.42,6.62-26.88,31.35.57,26.22.23,52.65,3.55,78.57,6.58,51.29,28.92,96.36,60,137.26,27.6,36.38,61.13,66.36,99.23,91.35,8,5.22,16,6.17,24.11.84,61.29-40,110-91.28,140.16-158.81C1448.69,357.47,1459.1,320.81,1457.41,263.49Z"/><path class="cls-6" d="M551.41,263.49c0-10.13,0-20.25,0-30.37,0-12.39-7-20.35-19.35-21.52-55.65-5.26-102.41-28.49-140.73-69.11-9.66-10.25-21.17-10.11-30.86.22-36.27,38.63-80.75,61.1-133.11,68.35-24.36,3.37-27.42,6.62-26.88,31.35.57,26.22.23,52.65,3.55,78.57,6.58,51.29,28.92,96.36,60,137.26,27.6,36.38,61.13,66.36,99.23,91.35,8,5.22,15.95,6.17,24.11.84,61.29-40,110-91.28,140.16-158.81C542.69,357.47,553.1,320.81,551.41,263.49Z"/></svg>